HIERARCHY
ROOT pelvis
{
  OFFSET 0 100 0
  CHANNELS 6 Xposition Yposition Zposition Zrotation Xrotation Yrotation
  JOINT pelvis_right_femur
  {
    OFFSET -10.78128 -3.44521 -0.5502486
    CHANNELS 3 Zrotation Xrotation Yrotation
    JOINT right_femur_tibia
    {
      OFFSET -0.8047443 -44.0398 -0.1307829
      CHANNELS 3 Zrotation Xrotation Yrotation
      JOINT right_tibia_foot
      {
        OFFSET 3.006224 -47.83518 -5
        CHANNELS 3 Zrotation Xrotation Yrotation
        End Site
        {
          OFFSET 0 -5 15
        }
      }
    }
  }
  JOINT pelvis_left_femur
  {
    OFFSET 10.78128 -3.44521 -0.5502486
    CHANNELS 3 Zrotation Xrotation Yrotation
    JOINT left_femur_tibia
    {
      OFFSET 0.8047443 -44.0398 -0.1307829
      CHANNELS 3 Zrotation Xrotation Yrotation
      JOINT left_tibia_foot
      {
        OFFSET -4.370144 -48.10324 -4.275266
        CHANNELS 3 Zrotation Xrotation Yrotation
        End Site
        {
          OFFSET 0 -5 15
        }
      }
    }
  }
  JOINT pelvis_spine1
  {
    OFFSET 0 6.468898 -3.129235
    CHANNELS 3 Zrotation Xrotation Yrotation
    JOINT spine1
    {
      OFFSET 0 23.15396 4.99043
      CHANNELS 3 Zrotation Xrotation Yrotation
      JOINT spine2
      {
        OFFSET 0 20.79997 -5.064912
        CHANNELS 3 Zrotation Xrotation Yrotation
        JOINT neck
        {
          OFFSET 0 14.38658 9.616178
          CHANNELS 3 Zrotation Xrotation Yrotation
          End Site
          {
            OFFSET 0 20 0
          }
        }
      }
      JOINT right_manubrium
      {
        OFFSET -5.722621 16.35077 3.967754
        CHANNELS 3 Zrotation Xrotation Yrotation
        JOINT right_clavicle
        {
          OFFSET -13.16364 1.694482 -4.693211
          CHANNELS 3 Zrotation Xrotation Yrotation
          JOINT right_humerus
          {
            OFFSET -28.5034 -0.3100689 -2.792744
            CHANNELS 3 Zrotation Xrotation Yrotation
            JOINT right_radius
            {
              OFFSET -25.15693 0.02248979 -1.271978
              CHANNELS 3 Zrotation Xrotation Yrotation
              End Site
              {
                OFFSET -15 0 0
              }
            }
          }
        }
      }
      JOINT left_manubrium
      {
        OFFSET 5.722621 16.35077 3.967754
        CHANNELS 3 Zrotation Xrotation Yrotation
        JOINT left_clavicle
        {
          OFFSET 13.16364 1.694482 -4.693211
          CHANNELS 3 Zrotation Xrotation Yrotation
          JOINT left_humerus
          {
            OFFSET 29.39168 -1.063119 -2.237045
            CHANNELS 3 Zrotation Xrotation Yrotation
            JOINT left_radius
            {
              OFFSET 24.59957 -0.9528479 0.9047498
              CHANNELS 3 Zrotation Xrotation Yrotation
              End Site
              {
                OFFSET 15 -0 -0
              }
            }
          }
        }
      }
    }
  }
}
MOTION
Frames: 11
Frame Time: 0.0416666666667
0 103.5113 0 -0.208372 -2.308299 -0.2100829 0.3368517 -6.208749 8.376204 -0 29.48268 -0 -6.061877 -13.02344 -0.9552339 -4.282943 4.935619 -13.60185 -0 14.71869 -0 5.12983 -19.16872 17.83741 -0.591167 -5.857591 5.925999 0.8311487 13.77178 -8.694257 -0.05400335 21.09015 8.70447 4.178097 -22.93953 8.770071 11.81319 -17.71989 15.36213 76.69632 30.16295 -15.38534 -0 0 21.36691 -7.781803 10.96808 -1.01304 8.278233 -23.07607 -1.165614 -93.91434 14.61243 14.39772 0 0 -1.353124 7.61894 18.24103 -5.109597
0.744018 103.4546 0.7790927 -0.2289156 -2.390262 -0.5081229 0.689074 -10.13161 8.891585 -0 36.17463 -0 -6.042938 -11.50518 -2.06302 -4.687825 5.900406 -13.39173 -0 14.01111 -0 4.980046 -19.47638 17.79893 -0.7735946 -5.007382 5.327448 0.7265378 14.01197 -9.074555 -0.1830278 20.62477 9.133564 4.576136 -23.24786 8.788271 11.66466 -18.03341 15.26447 76.63631 30.2013 -15.07831 -0 0 21.35737 -8.308461 10.75357 -0.2469655 8.244619 -22.92348 -1.20743 -93.62025 15.30998 14.67695 0 0 -1.423957 7.400826 17.7156 -4.52299
1.348072 103.4072 1.649585 -0.2477208 -2.447729 -0.7178942 1.144337 -14.19398 8.938597 -0 42.02919 -0 -6.147084 -9.997671 -3.24304 -5.004843 6.963812 -13.20813 -0 13.1521 -0 4.770063 -19.72128 17.78603 -1.084958 -4.124653 4.869399 0.7042637 14.26682 -9.354506 -0.2339261 20.12708 9.466369 5.039997 -23.48737 8.691691 11.55842 -18.31317 15.16594 76.6686 30.29368 -14.88435 -0 0 21.10854 -8.789242 10.54153 0.5027821 8.335562 -22.76023 -1.092192 -93.41618 16.11212 14.98593 0 0 -2.024383 7.387735 17.42988 -4.041571
1.732087 103.3872 2.716625 -0.2668804 -2.494578 -0.8910539 1.679236 -18.27648 8.378385 -0 45.7351 -0 -6.455406 -9.010044 -4.226938 -5.331691 8.168388 -12.98599 -0 12.13433 -0 4.479399 -19.90154 17.80889 -1.402514 -3.165016 4.535037 0.6378222 14.21861 -9.555324 -0.4810003 19.61452 9.795761 5.406969 -23.58546 8.375591 11.48422 -18.43067 15.08333 77.047 30.46861 -14.94711 -0 0 20.53495 -9.158185 10.34795 1.198722 8.706363 -23.22564 -0.7280742 -92.76128 17.207 14.72231 0 0 -2.938983 7.738705 17.40596 -3.626413
2.227283 103.6568 4.188182 -0.2781945 -2.496785 -0.9054909 2.275367 -21.94645 7.533309 -0 46.72597 -0 -6.786083 -7.987151 -4.539314 -5.343313 9.658791 -12.85593 -0 11.03816 -0 3.984276 -20.01359 17.48459 -1.432588 -2.005977 4.39694 0.8103852 14.2055 -9.57991 -0.4579884 19.25825 10.02477 5.803952 -24.10546 8.365288 11.20235 -18.43473 15.16081 77.5791 30.78644 -15.25974 -0 0 19.41849 -9.364151 10.18629 1.772431 8.853513 -23.38145 -0.5898606 -92.61842 18.22931 14.50524 0 0 -3.851901 8.066409 17.39601 -3.034465
2.593014 103.6277 5.87913 -0.2803784 -2.451673 -0.7503594 3.051444 -25.04838 6.915123 -0 43.76367 -0 -6.818625 -7.021209 -4.268536 -5.410106 11.2168 -12.73692 -0 9.988752 -0 3.546224 -20.32476 17.09754 -1.807573 -1.037201 4.18494 0.9564373 14.02493 -9.727154 -0.5895441 18.84308 10.14441 6.059891 -24.32056 8.041872 10.8516 -18.19401 15.08799 78.51617 31.08217 -15.87198 -0 0 18.32903 -9.423412 10.06611 2.302423 9.158824 -23.5137 -0.5439608 -92.45467 19.21594 14.08223 0 0 -4.998067 8.370418 17.33863 -2.522514
2.882034 103.3304 7.868257 -0.2776647 -2.38252 -0.5115208 3.506099 -27.10867 6.469036 -0 37.97517 -0 -6.755886 -5.964489 -3.639516 -5.447311 12.81596 -12.6861 -0 9.185303 -0 3.176617 -20.87474 16.60712 -1.992808 0.0219603 4.102275 1.324654 13.68727 -9.739673 -0.3475544 18.62143 10.31766 6.528862 -24.61456 8.185697 10.25073 -17.87841 14.8944 79.60837 31.39795 -16.60666 -0 0 17.14873 -9.369596 9.996829 2.747599 9.404747 -23.66901 -0.5326234 -92.32672 20.11427 13.48506 0 0 -6.500072 8.70015 17.23341 -2.175652
3.188817 102.7942 10.00606 -0.2790391 -2.336279 -0.3573588 3.630451 -28.48734 6.03928 -0 30.5301 -0 -6.718968 -5.009319 -3.008817 -5.279544 14.24291 -12.75252 -0 8.481282 -0 2.851859 -21.63337 15.93042 -2.139174 1.184061 4.071573 1.629712 13.16183 -9.668858 -0.196239 18.42091 10.4437 6.864019 -24.76301 8.239167 9.580086 -17.54887 14.73447 80.72982 31.72978 -17.39616 -0 0 15.87926 -9.229794 9.971671 3.12324 9.642649 -23.90144 -0.5369454 -92.13736 20.92756 12.74834 0 0 -8.185698 9.063323 17.08176 -1.945612
3.543137 102.1382 13.02539 -0.2576044 -2.17351 0.2216405 3.480844 -29.20989 5.513881 -0 23.10767 -0 -6.786043 -4.166578 -2.533333 -5.662884 16.15194 -12.21242 -0 8.721524 -0 2.487326 -22.13509 15.46302 -2.143041 1.934667 3.929576 1.985306 12.49838 -9.647431 -0.08899205 18.16306 10.46877 7.125692 -24.86868 8.125635 8.957779 -17.02589 14.37879 81.98853 32.02138 -18.50168 -0 0 14.34546 -9.068958 9.982376 3.420055 9.653501 -23.94038 -0.4456574 -92.11131 21.62509 12.26798 0 0 -9.71482 9.395739 16.88716 -1.722811
3.678111 101.4035 16.12099 -0.2353776 -2.005724 0.8214275 3.510781 -29.48934 5.063652 -0 17.36541 -0 -7.036739 -3.573119 -2.108896 -5.68675 17.65809 -11.83126 -0 9.229547 -0 2.030166 -22.49209 14.77403 -2.165621 2.734858 3.623107 2.194501 12.0428 -9.80144 -0.1418038 17.97126 10.4841 7.246326 -24.70068 7.862462 8.570977 -16.72003 14.01424 83.15525 32.23555 -19.42854 -0 0 13.07445 -9.021557 10.00977 3.808486 9.526526 -24.18284 -0.5525123 -91.8465 22.27508 11.75806 0 0 -10.92544 9.672289 16.6577 -1.421
3.704006 100.7019 19.70326 -0.2028285 -1.775846 1.649837 3.620761 -29.12132 4.741776 -0 14.56179 -0 -7.564797 -3.182027 -1.907011 -5.560546 19.08841 -11.53602 -0 10.4542 -0 1.359639 -22.39427 13.84187 -2.083097 3.18739 3.431025 2.377557 11.64732 -9.753393 -0.1649133 17.90911 10.4399 7.348817 -24.39705 7.564463 8.340505 -16.4345 13.55493 84.26867 32.41113 -20.35539 -0 0 11.84101 -9.049579 10.06249 4.225506 9.317704 -24.43043 -0.4976347 -91.65331 22.85016 11.50383 0 0 -11.89164 9.769017 16.40375 -0.9960994
